<svg width="39" height="39" viewBox="0 0 39 39" fill="none" xmlns="http://www.w3.org/2000/svg">
<g clip-path="url(#clip0)">
<path fill-rule="evenodd" clip-rule="evenodd" d="M26 13H13V26H26V13ZM21.6667 21.6667H17.3333V17.3333H21.6667V21.6667ZM39 17.3333V13H34.6667V8.66667C34.6667 6.28333 32.7167 4.33333 30.3333 4.33333H26V0H21.6667V4.33333H17.3333V0H13V4.33333H8.66667C6.28333 4.33333 4.33333 6.28333 4.33333 8.66667V13H0V17.3333H4.33333V21.6667H0V26H4.33333V30.3333C4.33333 32.7167 6.28333 34.6667 8.66667 34.6667H13V39H17.3333V34.6667H21.6667V39H26V34.6667H30.3333C32.7167 34.6667 34.6667 32.7167 34.6667 30.3333V26H39V21.6667H34.6667V17.3333H39ZM30.3333 30.3333H8.66667V8.66667H30.3333V30.3333Z" fill="#B8B8B8"/>
</g>
<defs>
<clipPath id="clip0">
<rect width="39" height="39" fill="white"/>
</clipPath>
</defs>
</svg>
