<svg width="36" height="36" viewBox="0 0 36 36" fill="none" xmlns="http://www.w3.org/2000/svg">
<g clip-path="url(#clip0)">
<path d="M24.984 4.32C23.0875 2.36815 20.7595 0.888494 18.1872 -4.15742e-06C18.0535 -0.0379922 17.9116 -0.0364506 17.7787 0.00443434C17.6459 0.0453193 17.5277 0.123799 17.4384 0.230396C17.3506 0.337888 17.2957 0.468476 17.2804 0.606436C17.265 0.744396 17.2899 0.883847 17.352 1.008C18.876 3.82662 19.3018 7.10987 18.5472 10.224C18.5348 10.2723 18.507 10.3153 18.468 10.3464C18.4291 10.3776 18.3811 10.3953 18.3312 10.3968C18.2016 10.3968 18.1728 10.3968 18.1728 10.296C17.0733 7.63172 15.2219 5.34511 12.8448 3.7152C12.7236 3.63527 12.5811 3.59385 12.4359 3.59638C12.2908 3.5989 12.1498 3.64525 12.0314 3.72934C11.9131 3.81343 11.8229 3.93133 11.7727 4.06758C11.7226 4.20382 11.7148 4.35205 11.7504 4.4928C12.6 7.8192 10.9296 9.8208 8.87041 12.3552C6.81121 14.8896 4.32001 17.856 4.32001 22.6368C4.37059 25.6917 5.4456 28.6411 7.37265 31.012C9.2997 33.383 11.9671 35.0381 14.9472 35.712C14.3397 35.2832 13.8428 34.7163 13.4973 34.0578C13.1518 33.3994 12.9676 32.6683 12.96 31.9248C12.96 24.2352 18 22.32 18 22.32C19.008 27.36 23.04 28.512 23.04 31.9248C23.0328 32.6597 22.8531 33.3827 22.5155 34.0354C22.1778 34.6882 21.6916 35.2526 21.096 35.6832C23.2086 35.2249 25.1826 34.2725 26.856 32.904C28.3711 31.6479 29.5894 30.072 30.4235 28.2894C31.2575 26.5068 31.6866 24.5617 31.68 22.5936C31.68 12.96 28.0368 7.344 24.984 4.32Z" fill="#B8B8B8"/>
</g>
<defs>
<clipPath id="clip0">
<rect width="36" height="36" fill="white"/>
</clipPath>
</defs>
</svg>
