<svg width="33" height="33" viewBox="0 0 33 33" fill="none" xmlns="http://www.w3.org/2000/svg">
<path fill-rule="evenodd" clip-rule="evenodd" d="M8.09403 28.875C7.66627 28.875 7.34236 28.4885 7.41712 28.0673L8.25001 23.375H3.56828C3.14117 23.375 2.81744 22.9897 2.89106 22.569L3.13169 21.194C3.18926 20.8651 3.47493 20.625 3.8089 20.625H8.73126L10.1888 12.375H5.50703C5.07992 12.375 4.75619 11.9897 4.82981 11.569L5.07044 10.194C5.12801 9.86502 5.41368 9.625 5.74765 9.625H10.67L11.5456 4.69235C11.6038 4.36413 11.8891 4.125 12.2225 4.125H13.576C14.0037 4.125 14.3276 4.51147 14.2528 4.93265L13.42 9.625H21.67L22.5456 4.69235C22.6038 4.36413 22.8891 4.125 23.2225 4.125H24.5759C25.0037 4.125 25.3276 4.51147 25.2528 4.93265L24.42 9.625H29.1017C29.5288 9.625 29.8526 10.0103 29.7789 10.431L29.5383 11.806C29.4808 12.135 29.1951 12.375 28.8611 12.375H23.9387L22.4813 20.625H27.163C27.5901 20.625 27.9139 21.0103 27.8402 21.431L27.5995 22.806C27.5421 23.1349 27.2564 23.375 26.9224 23.375H22L21.1244 28.3077C21.0662 28.6359 20.7809 28.875 20.4475 28.875H19.0941C18.6663 28.875 18.3424 28.4885 18.4172 28.0673L19.25 23.375H11L10.1245 28.3077C10.0662 28.6359 9.78088 28.875 9.44754 28.875H8.09403ZM12.9394 12.375L11.4819 20.625H19.7318L21.1893 12.375H12.9394Z" fill="#72767D"/>
</svg>
