<svg width="75" height="38" viewBox="0 0 75 38" fill="none" xmlns="http://www.w3.org/2000/svg">
<path d="M0.252075 0.158847V37.7268H52.9234L57.2721 28.2773L61.6904 37.7965H74.8664V0.156616L0.252075 0.158847Z" fill="#B8B8B8"/>
<path d="M68.1768 28.2693L59.1253 7.49295L59.1289 7.49161H59.1253V7.48938L59.124 7.49161H55.4889L46.6416 28.2773H50.5402L57.2756 11.9774L64.2994 28.2773L68.1768 28.2693Z" fill="white"/>
<path d="M20.8859 19.3735C23.7271 18.3066 25.0859 15.9474 25.0531 13.5436C25.0025 9.89491 22.1561 7.3479 18.13 7.3479H9.42426V28.2434H12.5947V10.3991H17.9494C19.7441 10.3991 21.6714 11.338 21.703 13.5878C21.73 15.5918 20.2424 16.8434 17.7217 16.9514L17.6725 16.9536L15.7518 16.9701L22.1472 28.2773L25.8923 28.2693C25.8923 28.2693 22.8155 22.8031 20.8859 19.3735Z" fill="white"/>
<path d="M29.3508 12.7435C29.3508 16.9045 33.4576 18.0785 36.6506 18.9834C39.9768 19.929 41.1355 20.995 41.1355 22.6107C41.1355 25.3059 38.4169 25.7267 36.7354 25.7267C34.4263 25.7267 32.5216 25.0783 30.6577 23.9213L29.0672 26.6312C31.4188 28.089 33.8561 28.7685 36.7354 28.7685C41.5451 28.7685 44.7404 26.263 44.7404 22.3849C44.7404 18.054 40.8533 16.8554 37.5852 15.9264C34.2564 14.9804 32.9547 14.1808 32.9547 12.5641C32.9547 10.1162 35.9348 9.87834 37.0021 9.87834C38.6809 9.87834 40.8151 10.4437 42.079 11.0996L43.417 8.45089C41.7129 7.5647 39.0985 6.97168 36.9129 6.97168C32.2624 6.97168 29.3508 9.10059 29.3508 12.7435Z" fill="white"/>
</svg>
